<svg xmlns="http://www.w3.org/2000/svg" viewBox="0 0 48 48">
  <g fill="hsl(106.5, 40%, 30%)">
    <path d="M35.9 4.4c-1.7-1-3.4-1.8-5.3-2.3l-4.9 18.2L35.9 4.4zm10.5 3.8c-1.6-2.7-3.8-5-6.4-6.7L29.3 18.1l17.1-9.9z"/>
    <path d="M20.9 24.7c0-.1-.1-.2 0-.3l5.5-20.5c-1.7-.4-3.4-.6-5.2-.6C11.6 3.3 3.2 9.8.7 19c-3 11.3 3.7 23 15 26 1.8.5 3.7.7 5.5.7 9.5 0 17.8-6.3 20.4-15.4l-20.5-5.5s-.1 0-.2-.1zm-2.2-10.6c-.5 1.8-2.3 2.8-4.1 2.4-.9-.2-1.6-.8-2-1.5-.4-.8-.6-1.7-.3-2.5.5-1.8 2.3-2.8 4.1-2.4.9.2 1.6.8 2 1.5.4.8.6 1.7.3 2.5z"/>
    <path d="M45.1 16.4c-.4-1.5-1-2.9-1.8-4.2l-15.8 9.2 17.6-5zm2.2 1.4l-19.1 5.4 19.2 5.2c.8-3.6.8-7.2-.1-10.6z"/>
  </g>
</svg>
