<svg xmlns="http://www.w3.org/2000/svg" viewBox="0 0 48 48">
  <rect x="1.5" y="1.5" width="45" height="45" rx="3" ry="3"
    stroke="hsl(106.5, 40%, 30%)" stroke-width="3" stroke-linecap="round"
    fill="none"/>
  <g fill="hsl(106.5, 40%, 30%)" transform="scale(1.45) translate(-.05 -3)">
    <path d="M10.6,28c-1.9,0-3.6-1.2-4.3-3l-0.8-2.4c-1.2-0.5-2-1.7-2-3c0-0.8,0.4-1.6,1.1-2.1l3.6-2.7c2.4-1.8,5.3-2.8,8.4-2.8
      c3.1,0,6,1,8.4,2.8l3.6,2.7c0.7,0.5,1.1,1.3,1.1,2.1c0,1.3-0.8,2.5-2,3L27,25c-0.6,1.8-2.4,3-4.3,3H10.6z M7.9,24.4
      c0.4,1.1,1.5,1.9,2.7,1.9h12.1c1.2,0,2.3-0.8,2.7-1.9l0.5-1.6c-0.8-0.1-1.4-0.5-1.9-1c-0.2,0.2-0.5,0.4-0.7,0.6
      c-0.5,0.3-1.1,0.5-1.7,0.5c-1,0-1.8-0.4-2.4-1.1c-0.2,0.2-0.5,0.4-0.7,0.6c-0.5,0.3-1.1,0.5-1.7,0.5c-1,0-1.8-0.4-2.4-1.1
      c-0.2,0.2-0.5,0.4-0.7,0.6c-0.5,0.3-1.1,0.5-1.7,0.5c-1,0-1.8-0.4-2.4-1.1c-0.5,0.6-1.2,0.9-1.9,1L7.9,24.4z M24,18.7
      c0.5,0,0.8,0.4,0.8,0.8c0,0.9,0.7,1.7,1.6,1.7c0.9,0,1.6-0.7,1.6-1.6c0-0.3-0.2-0.6-0.4-0.8l-3.6-2.7c-2.1-1.6-4.7-2.5-7.4-2.5
      c-2.7,0-5.2,0.9-7.4,2.5l-3.6,2.7c-0.2,0.2-0.4,0.5-0.4,0.8c0,0.9,0.7,1.6,1.6,1.6c0.9,0,1.6-0.7,1.6-1.6c0-0.5,0.4-0.9,0.8-0.9
      s0.8,0.4,0.8,0.8c0,0.9,0.7,1.7,1.6,1.7s1.6-0.7,1.6-1.6c0-0.5,0.4-0.9,0.8-0.9s0.8,0.4,0.8,0.8c0,0.9,0.7,1.7,1.6,1.7
      c0.9,0,1.6-0.7,1.6-1.6c0-0.5,0.4-0.9,0.8-0.9s0.8,0.4,0.8,0.8c0,0.9,0.7,1.7,1.6,1.7s1.6-0.7,1.6-1.6C23.2,19.1,23.6,18.7,24,18.7z
      "/>
    <path d="M16.6,18.2c-0.5,0-0.8-0.4-0.8-0.8v-1.8c0-0.5,0.4-0.8,0.8-0.8s0.8,0.4,0.8,0.8v1.8C17.5,17.8,17.1,18.2,16.6,18.2z"/>
    <path d="M13.5,18.2c-0.1,0-0.3,0-0.4-0.1c-0.4-0.2-0.5-0.7-0.3-1.2l1-1.8c0.2-0.3,0.4-0.4,0.7-0.4c0.1,0,0.3,0,0.4,0.1
      c0.2,0.1,0.3,0.3,0.4,0.5c0.1,0.2,0,0.4-0.1,0.6l-1,1.8C14.1,18,13.8,18.2,13.5,18.2L13.5,18.2z"/>
    <path d="M19.8,18.2c-0.3,0-0.6-0.2-0.7-0.4l-1-1.8c-0.1-0.2-0.1-0.4-0.1-0.6s0.2-0.4,0.4-0.5c0.1-0.1,0.3-0.1,0.4-0.1
      c0.3,0,0.6,0.2,0.7,0.4l1,1.8c0.1,0.2,0.1,0.4,0.1,0.6c-0.1,0.2-0.2,0.4-0.4,0.5C20.1,18.2,19.9,18.2,19.8,18.2L19.8,18.2z"/>
  </g>
</svg>
