<svg xmlns="http://www.w3.org/2000/svg" viewBox="0 0 48 48">
  <g color="hsl(106.5, 40%, 30%)">
    <circle cx="24" cy="24" r="23"
      stroke-width="2" stroke="currentColor" fill="none"/>
    <path fill="currentColor"
      d="M28.5 44.4c-.8 0-1.7-.3-2.5-.5l-.2-.1c-.7-.2-1.3-.4-1.9-.4-.6 0-1.2.2-1.9.4h-.1c-.8.3-1.6.5-2.5.5-.3 0-.7 0-.9-.1-1.2-.3-2-1.2-2.8-2.1-.5-.6-1-1.1-1.4-1.3-.5-.3-1.1-.4-1.8-.6h-.1c-1.2-.3-2.3-.5-3.2-1.4-.9-.8-1.2-2-1.4-3.1-.2-.7-.3-1.4-.6-1.9s-.8-.9-1.3-1.4c-.8-.8-1.8-1.6-2.1-2.9-.3-1.2.1-2.4.4-3.4.2-.7.4-1.4.4-2 0-.6-.2-1.2-.4-1.9-.4-1.1-.7-2.3-.4-3.5.3-1.2 1.2-2.1 2.1-2.9.5-.4 1-.9 1.3-1.5.3-.5.4-1.2.6-1.9.3-1.2.5-2.3 1.4-3.2.8-.9 2-1.2 3.2-1.4.7-.2 1.4-.3 1.9-.6s.9-.7 1.4-1.2l.1-.1c.8-.8 1.6-1.8 2.9-2.1.3-.1.6-.1.9-.1.9 0 1.7.3 2.5.5.8.3 1.4.4 2 .4.6 0 1.2-.2 1.9-.4.8-.3 1.7-.5 2.6-.5.3 0 .6 0 .9.1 1.2.3 2.1 1.3 2.9 2.1.4.5.9 1 1.5 1.3.6.3 1.2.5 1.9.6 1.2.3 2.4.5 3.2 1.4.9.9 1.1 2.1 1.4 3.2l-.4.2.4-.1c.2.7.3 1.3.6 1.8s.8.9 1.3 1.4c.9.8 1.8 1.7 2.1 2.9.3 1.2 0 2.3-.4 3.4l-.1.2c-.2.7-.4 1.3-.4 1.9 0 .6.2 1.2.4 1.9v.1c.4 1.1.7 2.3.4 3.4-.3 1.2-1.2 2-2.1 2.8-.6.5-1.1 1-1.3 1.4-.3.5-.4 1.1-.6 1.8v.1c-.3 1.2-.5 2.3-1.4 3.2-.9.9-2.1 1.1-3.2 1.4-.7.2-1.4.3-1.9.6-.4.3-.9.7-1.4 1.2l-.1.1c-.8.8-1.6 1.8-2.9 2.1-.3.2-.6.2-.9.2zM8.9 32.9c.4.7.6 1.5.8 2.3.2 1 .4 1.8.9 2.3.5.5 1.3.7 2.3.9.8.2 1.7.4 2.4.8s1.3 1.1 1.9 1.7c.7.7 1.3 1.4 1.9 1.6.1 0 .3.1.4.1.5 0 1.2-.2 1.9-.4.9-.3 1.7-.5 2.6-.5.9 0 1.7.3 2.5.5.7.2 1.4.4 2 .4.2 0 .3 0 .4-.1.7-.2 1.3-.8 1.9-1.5.6-.6 1.2-1.3 1.9-1.7.8-.4 1.6-.6 2.5-.8.9-.2 1.8-.4 2.3-.9.5-.5.7-1.3.9-2.3.1-.8.4-1.7.8-2.4s1-1.3 1.6-1.9c.8-.7 1.4-1.3 1.6-2 .2-.6-.1-1.4-.3-2.3-.3-.8-.6-1.7-.6-2.7 0-.9.2-1.7.5-2.6.3-.9.5-1.7.4-2.3-.2-.7-.8-1.3-1.5-1.9l-.1-.1c-.6-.6-1.2-1.1-1.6-1.8-.4-.8-.6-1.6-.8-2.4-.2-.9-.4-1.8-.9-2.3-.5-.5-1.3-.7-2.3-.9-.8-.2-1.7-.4-2.5-.8-.7-.5-1.4-1.1-1.9-1.7-.6-.7-1.2-1.3-1.9-1.5-.1 0-.3-.1-.4-.1-.5 0-1.2.2-1.9.4-.9.3-1.7.5-2.6.5-.9 0-1.7-.3-2.6-.5-.7-.2-1.4-.4-1.9-.4-.2 0-.3 0-.4.1-.7.2-1.3.8-1.9 1.5-.6.6-1.2 1.3-1.9 1.7-.8.4-1.6.6-2.5.8-.9.2-1.8.4-2.3.9-.5.5-.7 1.3-.9 2.3-.2.8-.4 1.7-.8 2.4-.5.7-1.1 1.4-1.7 1.9-.7.6-1.3 1.2-1.5 1.9-.2.6.1 1.5.4 2.3.3.8.5 1.7.5 2.6 0 .9-.3 1.7-.5 2.6-.3.8-.5 1.7-.4 2.4.2.7.8 1.3 1.5 1.9l.1.1c.6.5 1.2 1.1 1.6 1.8l.1.1z"/>
    <path d="M24 8l-5 13 5-2 5 2z" fill="currentColor" />
    <path d="M32 24c0-3.5 8 0 8 0s-8 3.5 -8 0z" fill="currentColor" />
    <path d="M16 24c0 3.5-8 0-8 0s8-3.5 8 0z" fill="currentColor" />
    <path d="M24 32c3.5 0 0 8 0 8s-3.5-8 0-8z" fill="currentColor" />
  </g>
</svg>
