<svg xmlns="http://www.w3.org/2000/svg" viewBox="0 0 80 80">
  <style>
    :root {
      --neutral-1: hsl(42, 15%, 13%);
      --neutral-2: hsl(40, 13%, 23%);
      --green: #5ab041;
      --brown: #ba7f31;
      --pink: hsl(335.9, 69.9%, 51.8%);
    }
  </style>
  <path style="fill: var(--brown)"
    d="M40 1a39 39 0 1 0 8.9 1.03L40 40z"
    transform="translate(40 40) rotate(36.5) translate(-40 -40)"/>
  <path style="stroke: var(--neutral-1); stroke-width: 2; stroke-linecap: butt; fill: none"
    d="M40 1a39 39 0 1 0 8.9 1.03"
    transform="translate(40 40) rotate(36.5) translate(-40 -40)"/>
  <path style="fill: var(--neutral-1)" d="M56.5 11.3c-.9-.5-1.8-1.5-2.7-2.4-1.3-1.5-2.7-2.9-4.6-3.5-1.8-.5-3.7.1-5.6.7-1.3.4-2.5.8-3.7.8-1.1 0-2.4-.4-3.7-.8-1.8-.6-3.7-1.2-5.6-.7-1.9.5-3.3 2-4.6 3.5-.9 1-1.7 1.9-2.7 2.4-1 .6-2.2.8-3.5 1.1-1.9.4-3.9.9-5.2 2.3-1.4 1.4-1.8 3.3-2.3 5.2a16 16 0 0 1-1.1 3.5c-.5.9-1.5 1.8-2.4 2.7-1.5 1.3-2.9 2.7-3.5 4.6-.5 1.8.1 3.7.7 5.6.4 1.3.8 2.5.8 3.7s-.4 2.4-.8 3.7c-.6 1.8-1.2 3.7-.7 5.6.5 1.9 2 3.3 3.5 4.6 1 .9 1.9 1.7 2.4 2.7.6 1 .8 2.2 1.1 3.5.4 1.9.9 3.9 2.2 5.2 1.4 1.4 3.3 1.8 5.2 2.3 1.3.3 2.5.6 3.5 1.1.9.5 1.8 1.5 2.7 2.4 1.3 1.5 2.7 2.9 4.6 3.5 1.8.5 3.7-.1 5.6-.7 1.3-.4 2.5-.8 3.7-.8 1.1 0 2.4.4 3.7.8 1.4.4 2.7.9 4.1.9.5 0 1-.1 1.5-.2 1.9-.5 3.3-2 4.6-3.5.9-1 1.7-1.9 2.7-2.4 1-.6 2.2-.8 3.5-1.1 1.9-.4 3.9-.9 5.2-2.3 1.4-1.4 1.8-3.3 2.3-5.2a16 16 0 0 1 1.1-3.5c.5-.9 1.5-1.8 2.4-2.7 1.4-1.3 2.9-2.7 3.5-4.6.5-1.8-.1-3.7-.7-5.6-.4-1.3-.8-2.5-.8-3.7s.4-2.4.8-3.7c.6-1.8 1.2-3.7.7-5.6-.5-1.9-2-3.3-3.5-4.6-1-.9-1.9-1.7-2.4-2.7-.6-1-.8-2.2-1.1-3.5-.2-.9-.4-1.7-.7-2.6L65 18.7c.1.5.3 1.1.4 1.6.3 1.4.6 2.8 1.3 4.1.7 1.2 1.8 2.2 2.8 3.1 1.3 1.2 2.5 2.3 2.9 3.7.3 1.3-.1 2.8-.7 4.5-.4 1.4-.9 2.8-.9 4.3 0 1.4.4 2.9.9 4.3.5 1.6 1 3.2.7 4.5-.4 1.4-1.6 2.5-2.9 3.7-1 1-2.1 1.9-2.8 3.1-.7 1.2-1 2.7-1.3 4.1-.4 1.7-.7 3.3-1.7 4.3s-2.6 1.3-4.3 1.7c-1.4.3-2.8.6-4.1 1.3-1.2.7-2.2 1.8-3.1 2.8-1.2 1.3-2.3 2.5-3.7 2.9-1.3.3-2.8-.1-4.5-.7-1.4-.4-2.8-.9-4.3-.9-1.4 0-2.9.4-4.3.9-1.6.5-3.2 1-4.5.7-1.4-.4-2.5-1.6-3.7-2.9-1-1-1.9-2.1-3.1-2.8-1.2-.7-2.7-1-4.1-1.3-1.7-.4-3.3-.7-4.3-1.7s-1.3-2.6-1.7-4.3c-.3-1.4-.6-2.8-1.3-4.1-.7-1.2-1.8-2.2-2.8-3.1-1.3-1.2-2.5-2.3-2.9-3.7 0-1.3.5-2.9 1-4.5.4-1.4.9-2.8.9-4.3 0-1.4-.4-2.9-.9-4.3-.5-1.6-1-3.2-.7-4.5.4-1.4 1.6-2.5 2.9-3.7 1-1 2.1-1.9 2.8-3.1.7-1.2 1-2.7 1.3-4.1.4-1.7.7-3.3 1.7-4.3s2.6-1.3 4.3-1.7c1.4-.3 2.8-.6 4.1-1.3 1.2-.7 2.2-1.8 3.1-2.8 1.2-1.3 2.3-2.5 3.7-2.9 1.3-.3 2.9.2 4.5.7 1.4.4 2.8.9 4.3.9 1.4 0 2.9-.4 4.3-.9 1.6-.5 3.2-1 4.5-.7 1.4.4 2.5 1.6 3.7 2.9 1 1 1.9 2.1 3.1 2.8 1 .6 2.2.9 3.4 1.2l1.3-1.7h-.2c-1.4-.3-2.6-.6-3.6-1.2z"/>
  <path style="fill: var(--neutral-1)" d="M39.3 13.8h1.8c.6 0 1-.4 1-1s-.4-1-1-1h-1.8c-.6 0-1 .4-1 1s.5 1 1 1zM32.4 12.8l-1.7.6a1 1 0 0 0-.6 1.3c.1.4.5.7 1 .7h.3l1.7-.6c.5-.2.8-.7.6-1.3-.2-.6-.8-.9-1.3-.7zM24.4 16.5l-1.5 1.1c-.4.3-.5 1-.2 1.4.2.3.5.4.8.4.2 0 .4-.1.6-.2l1.5-1.1c.4-.3.5-1 .2-1.4-.4-.5-1-.6-1.4-.2zM17.8 22.4l-1.1 1.5c-.3.4-.2 1.1.2 1.4.2.1.4.2.6.2.3 0 .6-.1.8-.4l1.1-1.5c.3-.4.2-1.1-.2-1.4-.4-.3-1-.2-1.4.2zM14.8 29.5c-.5-.2-1.1.1-1.3.6l-.6 1.7c-.2.5.1 1.1.6 1.3h.3c.4 0 .8-.3 1-.7l.6-1.7c.2-.5-.1-1-.6-1.2zM13.8 40.7v-1.8c0-.6-.4-1-1-1s-1 .4-1 1v1.8c0 .6.4 1 1 1s1-.5 1-1zM14.7 47a1 1 0 0 0-1.3-.6 1 1 0 0 0-.6 1.3l.6 1.7c.1.4.5.7 1 .7h.3c.5-.2.8-.7.6-1.3l-.6-1.8zM18.1 54.5c-.3-.4-.9-.5-1.4-.2-.4.3-.5 1-.2 1.4l1.1 1.5c.2.3.5.4.8.4.2 0 .4-.1.6-.2.4-.3.5-.9.2-1.4l-1.1-1.5zM23.6 60.5c-.4-.3-1.1-.2-1.4.2-.3.4-.2 1.1.2 1.4l1.5 1.1c.2.1.4.2.6.2.3 0 .6-.1.8-.4.3-.4.2-1.1-.2-1.4l-1.5-1.1zM32.5 65.2l-1.7-.6c-.5-.2-1.1.1-1.3.6s.1 1.1.6 1.3l1.7.6h.3c.4 0 .8-.3 1-.7.2-.5-.1-1.1-.6-1.2zM37.8 67.2c0 .6.4 1 1 1h1.8c.6 0 1-.4 1-1s-.4-1-1-1h-1.8c-.5 0-1 .5-1 1zM47.3 67.3h.3l1.7-.6c.5-.2.8-.7.6-1.3a1 1 0 0 0-1.3-.6l-1.6.5a1 1 0 0 0-.6 1.3c.1.4.5.7.9.7zM55.1 63.7c.2 0 .4-.1.6-.2l1.5-1.1c.4-.3.5-1 .2-1.4-.3-.4-.9-.5-1.4-.2l-1.5 1.1c-.4.3-.5 1-.2 1.4.1.3.5.4.8.4zM61.3 58c.3 0 .6-.1.8-.4l1.1-1.5c.3-.4.2-1.1-.2-1.4-.4-.3-1.1-.2-1.4.2l-1.1 1.5c-.3.4-.2 1.1.2 1.4.2.1.4.2.6.2zM65.2 50.5h.3c.4 0 .8-.3 1-.7l.6-1.7c.2-.5-.1-1.1-.6-1.3-.5-.2-1.1.1-1.3.6l-.6 1.7c-.2.7.1 1.2.6 1.4zM66.2 39.3v1.8c0 .6.4 1 1 1s1-.4 1-1v-1.8c0-.6-.4-1-1-1-.5 0-1 .5-1 1zM65.3 33c.1.4.5.7 1 .7h.3c.5-.2.8-.7.6-1.3l-.6-1.7a1 1 0 0 0-1.3-.6 1 1 0 0 0-.6 1.3l.6 1.6zM61.9 25.5c.2.3.5.4.8.4.2 0 .4-.1.6-.2.4-.3.5-1 .2-1.4l-1.1-1.5c-.3-.4-1-.5-1.4-.2-.4.3-.5 1-.2 1.4l1.1 1.5zM54.7 17c-.3.4-.2 1.1.2 1.4l.6.4 1.2-1.6-.6-.4c-.5-.4-1.1-.3-1.4.2zM47.5 14.8l1.7.6h.3c.4 0 .8-.3 1-.7.2-.5-.1-1.1-.6-1.3l-1.7-.6c-.5-.2-1.1.1-1.3.6-.2.7.1 1.3.6 1.4z"/>
  <path style="fill: var(--green)" d="M69.3 2.2L67 5.3c1.8.4 3.7.9 5.1 2.2.8.8 1.2 1.7 1.6 2.7l2.2-1.8c-2-2.3-4.2-4.4-6.6-6.2zM66.3 7.2c-.2-.1-.5-.1-.7-.2l-2.2 3 .9.6c.4.3.5 1 .2 1.4-.2.3-.5.4-.8.4-.2 0-.4-.1-.6-.2l-.9-.7-15.8 21 25.5-21c-.3-1.1-.7-2-1.3-2.6-1-1-2.6-1.3-4.3-1.7z"/>
  <path style="fill: var(--neutral-1)" d="M75.8 8.4l1.5-1.3c-2-2.4-4.3-4.6-6.9-6.5l-1.2 1.6c2.5 1.8 4.7 3.9 6.6 6.2zM66.3 7.2c1.7.4 3.3.7 4.3 1.7.6.6 1 1.6 1.3 2.6l1.7-1.4c-.3-1-.8-1.9-1.6-2.7-1.3-1.3-3.2-1.8-5.1-2.2L65.6 7c.3.1.5.2.7.2zM63.1 12.2c.2.1.4.2.6.2.3 0 .6-.1.8-.4.3-.4.2-1.1-.2-1.4l-.9-.6-1.2 1.6.9.6z"/>
</svg>
