<svg fill="#1A1A1A" xmlns="http://www.w3.org/2000/svg" viewBox="0 0 96 96" x="0px" y="0px"><title>Artboard 4</title><g><path d="M42,39.9976a4,4,0,1,0-4,4A4.0052,4.0052,0,0,0,42,39.9976Z"></path><path d="M58,35.9976a4,4,0,1,0,4,4A4.0052,4.0052,0,0,0,58,35.9976Z"></path><path d="M57.867,66.1417a2.2451,2.2451,0,0,0-2.1328,2.1445,4.1014,4.1014,0,0,1-3.705-.293,3.8868,3.8868,0,0,1-1.7812-2.3571A7.9833,7.9833,0,0,0,56,57.9973v-2a8,8,0,1,0-16,0v2a7.9833,7.9833,0,0,0,5.7519,7.6388,3.8868,3.8868,0,0,1-1.7812,2.3571,4.0708,4.0708,0,0,1-3.705.293C40,68.1338,40,68.0381,40,67.9971a2,2,0,1,0-4,0,4.2913,4.2913,0,0,0,2.2675,3.7558,6.8778,6.8778,0,0,0,3.4179.84,8.6694,8.6694,0,0,0,4.291-1.1386A7.8485,7.8485,0,0,0,48,69.7134a7.8485,7.8485,0,0,0,2.0234,1.7407,8.6694,8.6694,0,0,0,4.291,1.1386,6.8778,6.8778,0,0,0,3.4179-.84A4.2913,4.2913,0,0,0,60,67.9971,1.9994,1.9994,0,0,0,57.867,66.1417ZM44,57.9973v-2a4,4,0,1,1,8,0v2a4,4,0,0,1-8,0Z"></path><path d="M87.3138,16.6835a16.0223,16.0223,0,0,0-22.63.0019,25.7181,25.7181,0,0,0-2.3723,2.8765A28.8836,28.8836,0,0,0,48,15.998a28.8847,28.8847,0,0,0-14.3113,3.5639,25.6991,25.6991,0,0,0-2.374-2.8784A16.0008,16.0008,0,0,0,8.6862,39.312a36.73,36.73,0,0,0,8.4,5.7707A55.27,55.27,0,0,0,16,55.9973c0,16.4861,13.158,28,32,28S80,72.4834,80,55.9973a55.27,55.27,0,0,0-1.0854-10.9146,36.73,36.73,0,0,0,8.4-5.7707A16.0234,16.0234,0,0,0,87.3138,16.6835ZM11.5143,36.484A12.0013,12.0013,0,0,1,28.4847,19.51a21.3773,21.3773,0,0,1,1.8833,2.2741,29.1986,29.1986,0,0,0-3.0264,2.7034,14.3671,14.3671,0,0,0-1.685-2.1455,8.1881,8.1881,0,0,0-11.3123,0,7.997,7.997,0,0,0,0,11.3123,20.6513,20.6513,0,0,0,5.109,3.3906c-.5136,1.3215-.9807,2.6669-1.3771,4.0448A30.7818,30.7818,0,0,1,11.5143,36.484ZM21.0769,33.39a16.74,16.74,0,0,1-3.9045-2.564,3.9983,3.9983,0,0,1,0-5.6561,4.094,4.094,0,0,1,5.6561,0,13.4836,13.4836,0,0,1,1.7827,2.4912A37.061,37.061,0,0,0,21.0769,33.39ZM48,79.9969c-13.9373,0-27.9995-7.4217-27.9995-24,0-13.3709,5.8963-35.9994,28-35.9994S76,42.6264,76,55.9973C76,72.5752,61.9373,79.9969,48,79.9969Zm23.3888-52.336A13.4836,13.4836,0,0,1,73.1715,25.17a4.094,4.094,0,0,1,5.6561,0,3.9983,3.9983,0,0,1,0,5.6561,16.74,16.74,0,0,1-3.9045,2.564A37.061,37.061,0,0,0,71.3888,27.6609Zm6.535,13.4284c-.3964-1.3781-.8635-2.7233-1.3771-4.0448a20.6456,20.6456,0,0,0,5.109-3.3906,7.997,7.997,0,0,0,0-11.3123,8.1881,8.1881,0,0,0-11.3123,0,14.3671,14.3671,0,0,0-1.685,2.1455,29.1986,29.1986,0,0,0-3.0264-2.7034,21.3357,21.3357,0,0,1,1.8814-2.2721A12.0013,12.0013,0,0,1,84.4857,36.484,30.7818,30.7818,0,0,1,77.9238,41.0893Z"></path></g></svg>