<svg fill="#1A1A1A" xmlns="http://www.w3.org/2000/svg" viewBox="0 0 64 64" x="0px" y="0px"><g data-name="line out line"><path d="M2,6v6H6.141A15.053,15.053,0,0,0,6,14a12.969,12.969,0,0,0,1.062,4.348A11.414,11.414,0,0,1,8,22a6.7,6.7,0,0,1-.921,3.754A7.819,7.819,0,0,0,6.049,29H2.071l-.042.956C2.014,30.3,2,30.65,2,31,2,41.7,8.95,50.964,19,55.331V62H45V55.331C55.05,50.964,62,41.7,62,31c0-.35-.014-.7-.029-1.044L61.929,29H58.964l.659-1.978a6.979,6.979,0,0,0-3.715-8.629l-1.036-.474a6.971,6.971,0,0,0-8.485,2.14A5.476,5.476,0,0,0,42.9,17.99,5.358,5.358,0,0,0,37.529,14a5.358,5.358,0,0,0-5.376,4,4.062,4.062,0,0,0-3.447,3.828A6.63,6.63,0,0,0,22,28.412c0,.2.025.392.042.588H18.057a5.935,5.935,0,0,1,.791-2.311A8.658,8.658,0,0,0,20,22a12.958,12.958,0,0,0-1.062-4.346A11.418,11.418,0,0,1,18,14a13.118,13.118,0,0,1,.159-2H62V2H2Zm2,4V8H7.145c-.219.606-.431,1.278-.615,2ZM17.145,8c-.219.606-.431,1.278-.615,2H13.6c.21-.736.449-1.413.681-2ZM11.53,10H8.6c.21-.736.449-1.413.681-2h2.862C11.926,8.606,11.714,9.278,11.53,10ZM8.938,17.656A11.418,11.418,0,0,1,8,14a13.118,13.118,0,0,1,.159-2h2.982A15.053,15.053,0,0,0,11,14a12.969,12.969,0,0,0,1.062,4.348A11.414,11.414,0,0,1,13,22a6.7,6.7,0,0,1-.921,3.754A7.819,7.819,0,0,0,11.049,29H8.057a5.935,5.935,0,0,1,.791-2.311A8.658,8.658,0,0,0,10,22,12.958,12.958,0,0,0,8.938,17.656ZM43,60H21V56.112a32.988,32.988,0,0,0,22,0ZM32,56C20.542,56,10.674,49.82,6.345,41H10a1,1,0,0,0,1-1V37h4v3a1,1,0,0,0,1,1h6a1,1,0,0,0,1-1V37h4v3a1,1,0,0,0,1,1h6a1,1,0,0,0,1-1V37h4v3a1,1,0,0,0,1,1h8a1,1,0,0,0,1-1V37h4v3a1,1,0,0,0,1,1h3.655C53.326,49.82,43.458,56,32,56ZM58.521,39H55V36a1,1,0,0,0-1-1H48a1,1,0,0,0-1,1v3H41V36a1,1,0,0,0-1-1H34a1,1,0,0,0-1,1v3H29V36a1,1,0,0,0-1-1H22a1,1,0,0,0-1,1v3H17V36a1,1,0,0,0-1-1H10a1,1,0,0,0-1,1v3H5.479A22.475,22.475,0,0,1,4,31H60A22.475,22.475,0,0,1,58.521,39ZM39.512,27.391,38.671,29H36.415l1.325-2.536a1,1,0,0,0-1.773-.926L34.157,29H32.05a2.971,2.971,0,0,1,.293-.844L34.2,24.611a3,3,0,1,1,5.317,2.78ZM47.768,29a2.486,2.486,0,0,1,4.865,0Zm-.124-7.234a4.982,4.982,0,0,1,6.4-2.027l1.036.473a4.988,4.988,0,0,1,2.651,6.171L56.856,29H54.648A4.488,4.488,0,0,0,46.1,27.655,4.451,4.451,0,0,0,45.732,29h-1.8a6.181,6.181,0,0,1,.809-2.348ZM24,28.412a4.594,4.594,0,0,1,4.588-4.588,4.668,4.668,0,0,1,.92.092.986.986,0,0,0,.831-.206,1,1,0,0,0,.367-.774v-1.09a2.177,2.177,0,0,1,2.353-1.934,1,1,0,0,0,1-1A3.231,3.231,0,0,1,37.529,16,3.232,3.232,0,0,1,41,18.912a1,1,0,0,0,1,1c1.43,0,3,1.012,3,1.934a.968.968,0,0,0,.069.34l-2.045,3.445A8.16,8.16,0,0,0,41.923,29h-1l.357-.683a5,5,0,1,0-8.863-4.632L30.57,27.229A4.991,4.991,0,0,0,30.043,29h-6A4.624,4.624,0,0,1,24,28.412ZM17.062,18.348A11.414,11.414,0,0,1,18,22a6.7,6.7,0,0,1-.921,3.754A7.819,7.819,0,0,0,16.049,29H13.057a5.935,5.935,0,0,1,.791-2.311A8.658,8.658,0,0,0,15,22a12.958,12.958,0,0,0-1.062-4.346A11.418,11.418,0,0,1,13,14a13.118,13.118,0,0,1,.159-2h2.982A15.053,15.053,0,0,0,16,14,12.969,12.969,0,0,0,17.062,18.348ZM60,10H18.6c.21-.736.449-1.413.681-2H60ZM4,4H60V6H4Z"></path></g></svg>