<svg fill="#1A1A1A" xmlns="http://www.w3.org/2000/svg" xmlns:xlink="http://www.w3.org/1999/xlink" version="1.1" x="0px" y="0px" viewBox="0 0 100 100" enable-background="new 0 0 100 100" xml:space="preserve"><g><path fill="none" d="M42.278,51.65c8.308,2.237,14.379,0.959,19.704,1.278l-5.751-19.066h-0.107v-0.105   c-0.319-1.065-1.385-1.811-2.556-1.493L39.19,35.141c-1.279,0.213-2.026,1.386-1.81,2.556c0.319,1.279,1.49,2.024,2.662,1.811   l12.461-2.556l0.212,0.745l0.64,6.924c-0.212,0-14.272,3.941-17.255,4.685C37.699,50.265,39.722,51.012,42.278,51.65z"></path><path fill="none" d="M69.545,54.312c-0.319-0.213-0.747-0.319-1.066-0.319c-0.638,0-1.17,0.319-1.596,0.853   c-0.109,0.213-0.322,0.425-0.428,0.638c-1.171,1.385-5.112,4.9-7.242,5.325c-1.917,0.425-4.047,0.319-5.964-0.213   c-2.024-0.534-4.048-1.385-6.07-2.344c-2.239-0.958-4.475-2.022-6.925-2.662c-1.279-0.319-2.448-0.425-3.727-0.425   c-1.706,0-3.41,0.319-5.005,0.851c-1.492,0.427-2.771,1.065-3.941,1.917c-1.279,0.959-2.346,2.024-3.197,3.196   c-0.106,0.106-0.106,0.106-0.213,0.213c-0.425,0.852-3.09,5.964-2.236,6.497c0.319,0.213,3.621-2.982,3.941-3.728   c0.105,0,0.212,0,0.212,0c0.532-0.107,0.957-0.32,1.279-0.746c1.277-1.704,3.087-3.087,5.324-3.834   c1.279-0.426,2.557-0.639,3.835-0.639c4.687,0,8.734,2.875,12.995,4.473c2.236,0.852,4.579,1.491,7.135,1.491   c1.065,0,2.236-0.106,3.408-0.425c2.663-0.534,5.007-1.92,6.709-3.728c0.427-0.425,2.984-3.302,3.302-3.728   C70.609,56.123,70.396,54.952,69.545,54.312z"></path><path fill="none" d="M71.568,33.65c-3.621,0-6.604,2.983-6.604,6.603c0,3.727,2.983,6.603,6.604,6.603   c3.622,0,6.603-2.877,6.603-6.603C78.172,36.633,75.19,33.65,71.568,33.65z"></path><path fill-rule="evenodd" clip-rule="evenodd" d="M49.947,5C25.129,5,5,25.237,5,50.052C5,74.763,25.129,95,49.947,95   C74.762,95,95,74.763,95,50.052C95,25.237,74.762,5,49.947,5z M52.715,37.697l-0.212-0.745l-12.461,2.556   c-1.172,0.213-2.343-0.532-2.662-1.811c-0.216-1.17,0.532-2.343,1.81-2.556l14.379-2.877c1.171-0.319,2.237,0.428,2.556,1.493   v0.105h0.107l5.751,19.066c-5.325-0.319-11.396,0.959-19.704-1.278c-2.556-0.638-4.579-1.385-6.178-2.344   c2.984-0.744,17.043-4.685,17.255-4.685L52.715,37.697z M70.077,56.976c-0.318,0.426-2.875,3.303-3.302,3.728   c-1.703,1.809-4.047,3.195-6.709,3.728c-1.173,0.318-2.343,0.425-3.408,0.425c-2.556,0-4.899-0.639-7.135-1.491   c-4.261-1.598-8.308-4.473-12.995-4.473c-1.278,0-2.557,0.213-3.835,0.639c-2.237,0.747-4.047,2.13-5.324,3.834   c-0.322,0.425-0.747,0.639-1.279,0.746c0,0-0.107,0-0.212,0c-0.32,0.745-3.622,3.941-3.941,3.728   c-0.854-0.533,1.81-5.645,2.236-6.497c0.107-0.107,0.107-0.107,0.213-0.213c0.851-1.172,1.918-2.237,3.197-3.196   c1.17-0.852,2.449-1.49,3.941-1.917c1.596-0.532,3.3-0.851,5.005-0.851c1.279,0,2.448,0.106,3.727,0.425   c2.45,0.64,4.686,1.704,6.925,2.662c2.023,0.959,4.047,1.81,6.07,2.344c1.917,0.532,4.047,0.638,5.964,0.213   c2.13-0.425,6.071-3.941,7.242-5.325c0.106-0.213,0.319-0.425,0.428-0.638c0.425-0.534,0.957-0.853,1.596-0.853   c0.319,0,0.747,0.106,1.066,0.319C70.396,54.952,70.609,56.123,70.077,56.976z M71.568,46.857c-3.621,0-6.604-2.877-6.604-6.603   c0-3.62,2.983-6.603,6.604-6.603c3.622,0,6.603,2.983,6.603,6.603C78.172,43.98,75.19,46.857,71.568,46.857z"></path></g></svg>