<svg fill="#1A1A1A" xmlns="http://www.w3.org/2000/svg" xmlns:xlink="http://www.w3.org/1999/xlink" version="1.1" x="0px" y="0px" viewBox="0 0 100 100" enable-background="new 0 0 100 100" xml:space="preserve"><g><path d="M79.6,29.8C72.6,22.6,63.1,18.6,53,18.6L52.4,14l-0.2-2.8c0-0.4-0.3-0.7-0.7-0.7V5.7c0-0.4-0.3-0.7-0.7-0.7   s-0.7,0.3-0.7,0.7v4.8c-0.4,0-0.7,0.3-0.7,0.7L49.2,14l-0.4,4.9c-0.1,0-0.2,0-0.4,0C31,20.6,17.6,33.3,14.9,50.4c0,0.1,0,0.3,0,0.4   c-2.5,0.9-3.2,3.1-3.1,4.7c-1.1,0.5-2.4,1.6-2.4,3.7c0,2.6,2.2,3.7,3.4,3.9c0,0,0.1,0,0.1,0h1.7c0,0.1,0,0.1,0,0.2   C17.7,81.7,33.5,95,52.3,95c21.1,0,38.2-17.1,38.2-38.2C90.5,46.6,86.7,37,79.6,29.8z M63.6,90.9c-0.8-1-2.2-2.1-4.3-2.2l5.9-1.1   c0.4,0.8,0.8,1.5,1.2,2.3C65.5,90.2,64.5,90.6,63.6,90.9z M45.9,92.1c0-0.8,0-1.7-0.4-2.5l2.6,0.7c-0.1,0.7-0.2,1.4-0.2,2.1   C47.1,92.3,46.5,92.3,45.9,92.1z M40.2,90.7c0.6-0.8,1.6-1.7,2.9-1.3c1.2,0.4,1.4,1.6,1.3,2.5C43,91.5,41.6,91.1,40.2,90.7z    M37.4,89.5c0.4-0.6,0.7-1.2,1.1-1.9l2.4,0.7c-0.8,0.5-1.5,1.2-1.9,1.8C38.3,89.9,37.8,89.7,37.4,89.5z M49.9,66.6   c0,0.1,0,0.2-0.1,0.2c0,0,0,0.7-0.1,2l-4.6-0.3c0.2-0.9,0.3-1.4,0.3-1.5c0,0,0,0,0-0.1L49.9,66.6z M62.4,81.2l-1.9,4.3l-0.8-4   L62.4,81.2C62.4,81.2,62.4,81.2,62.4,81.2z M49.4,74.2L47.6,74l2.1-2.3C49.6,72.5,49.5,73.3,49.4,74.2z M48.6,75.5l-2.3,2.8l0.7-3   L48.6,75.5z M49.3,76.9c-0.1,1.2-0.2,2.6-0.3,3.9l-2.4-0.6L49.3,76.9z M48.8,82.3c-0.1,1.3-0.2,2.6-0.4,4l-1.7-4.5L48.8,82.3z    M50.7,76.4l2.5,4.2l-2.9,0.3C50.5,79.3,50.6,77.8,50.7,76.4z M51.9,75.5l1.3-0.1l0.2,2.6L51.9,75.5z M54.5,75.3l1.9-0.1l-1.7,3   L54.5,75.3z M55.1,80.5l2.2-3.9l0.7,3.6L55.1,80.5z M54.7,73.9l1.5-2.4l0.4,2.3L54.7,73.9z M50.9,74.2c0.1-1,0.1-1.9,0.2-2.7   l1.8,2.6L50.9,74.2z M47.7,71.7l0.3-1.6l1,0.1L47.7,71.7z M46,72.8L45.6,70l1,0.1L46,72.8z M45.5,75.2L45,77.3L44.1,75L45.5,75.2z    M39.6,86.5l4.2-3.7l-1,4.6L39.6,86.5z M44.2,87.8l1.2-5.6l2.5,6.7L44.2,87.8z M50.2,82.4l3.2-0.3l-3.7,5.5   C49.9,85.8,50.1,84.1,50.2,82.4z M58.2,81.6l0.7,3.5l-2.6-3.3L58.2,81.6z M59.4,80l-0.6-3.1l2.6,2.9L59.4,80z M57.8,71.9l1.6,1.7   l-1.2,0.1L57.8,71.9z M54.3,72l-0.1-1.8l1.3-0.1L54.3,72z M52.7,70.2l0.1,1.3l-0.9-1.3L52.7,70.2z M44.4,71.6l0.3,2l-0.8-0.1   C44.1,72.9,44.2,72.2,44.4,71.6z M43.1,76.3l1.4,3.5l0,0l-2.4-0.6C42.4,78.2,42.8,77.2,43.1,76.3z M41.6,80.6l2.1,0.5l-3.5,3.1   C40.7,82.9,41.1,81.8,41.6,80.6z M53.8,84.1l0.3,4.1l-3.6,0.7L53.8,84.1z M55.6,88l-0.4-5.3l3.8,4.7L55.6,88z M62.1,91.4   c-2.5,0.7-5,1.1-7.7,1.3c0.4-0.9,1.3-2,3.3-2.4C59.9,89.8,61.3,90.6,62.1,91.4z M61.4,86.9l1.7-3.8c0.4,1.1,0.9,2.2,1.4,3.2   L61.4,86.9z M58.9,75l1.3-0.1c0.2,0.8,0.5,1.5,0.8,2.4L58.9,75z M58,70l0.8,0c0.1,0.4,0.2,0.8,0.3,1.3L58,70z M58.1,67   c0,0.1,0.1,0.7,0.4,1.5l-4.9,0.2c-0.1,0-0.2-0.1-0.3,0c-0.1,0-0.2,0-0.3,0.1l-1.8,0.1c0.1-1.2,0.1-1.9,0.1-1.9c0-0.1,0-0.2-0.1-0.3   L58.1,67C58.1,67,58.1,67,58.1,67z M59.5,65.6l-9-0.5c0,0,0,0,0,0c0,0,0,0-0.1,0l-6.3,0.5V62l1.2-0.1c0,0,0,0,0.1,0   c0.1,0,0.3,0,0.4,0l4.4-0.3l9.3,0.5V65.6z M50.8,11.9L50.8,11.9l0.2,1.4h-0.3L50.8,11.9z M54.2,37.6l-3.1-0.6c0,0,0,0-0.1,0   c0,0,0,0-0.1,0c0,0,0,0,0,0c0,0,0,0,0,0c0,0,0,0-0.1,0c0,0-0.1,0-0.1,0c0,0,0,0,0,0l-2.6,0.6v-1.1c0.5-0.4,2.3-1.4,5.9-0.2   L54.2,37.6z M48.2,39.1l2.1-0.5c0,1.1,0,3.2,0,5.7h-2.3C48,42.6,48.1,40.8,48.2,39.1z M50.3,45.7c0,1.3,0,2.8,0,4.2h-2.8   c0.1-1.3,0.2-2.7,0.3-4.2H50.3z M50.2,51.3c0,1.5,0,2.9-0.1,4.3h-3.3c0.1-1.3,0.3-2.7,0.4-4.3H50.2z M50.1,57   c0,1.3-0.1,2.4-0.1,3.2l-3.7,0.3c0.1-0.7,0.3-1.9,0.4-3.4H50.1z M51.4,60.2c0-0.8,0.1-1.9,0.1-3.2h4.9c0.2,1.5,0.5,2.7,0.6,3.5   L51.4,60.2z M51.6,55.6c0-1.3,0-2.8,0.1-4.3h3.9c0.2,1.5,0.4,3,0.6,4.3H51.6z M51.7,49.9c0-1.4,0-2.8,0-4.2h3.2   c0.2,1.4,0.3,2.8,0.5,4.2H51.7z M51.7,44.3c0-2.5,0-4.6,0-5.7l2.6,0.5c0.1,1.7,0.3,3.4,0.5,5.2H51.7z M48.2,34.9v-1.5l2.8-0.7   l2.2,0.5c0,0,0,0,0,0l0.7,0.2l0.1,1.6C51.2,34,49.3,34.4,48.2,34.9z M51.1,31.2c-0.1,0-0.2,0-0.3,0l-1.5,0.4v-0.7   c0.8-0.1,2.1-0.2,3.4,0v0.7L51.1,31.2z M53.6,29.6C53.6,29.6,53.5,29.6,53.6,29.6C53.5,29.6,53.5,29.6,53.6,29.6   c-2.3-0.4-5,0-5.1,0c0,0,0,0,0,0c-0.1,0-0.1,0-0.2,0.1l0,0V28c0.9-0.3,3.2-0.9,6,0v1.8L53.6,29.6z M53.7,26.4c-2-0.5-3.8-0.3-4.9,0   v-1.5c0.9-0.2,2.8-0.6,4.9,0V26.4z M49.8,23.2l0.8-8.5h0.5l1,8.4C51.2,23.1,50.5,23.1,49.8,23.2z M10.9,59.2c0-2,1.7-2.5,1.9-2.6   c0.4-0.1,0.6-0.4,0.5-0.8c-0.1-0.3-0.5-3.3,2.9-3.9c0.4-0.1,0.7-0.1,1.1-0.1c2.6,0,3.2,2.2,3.3,2.3c0.1,0.2,0.2,0.3,0.3,0.4   c0.2,0.1,0.4,0.1,0.6,0.1c0.4-0.1,0.7-0.2,1-0.2c1.3,0,1.5,1.3,1.5,1.5c0,0.4,0.3,0.6,0.7,0.6c0.1,0,2.8,0.1,2.8,2.5   c0,2.3-1.7,2.7-2.1,2.7H13.1C12.7,61.7,10.9,61.2,10.9,59.2z M17,63.2h8.5c0,0,0,0,0.1,0c1.2-0.1,3.4-1.1,3.4-4.2   c0-2.7-2.2-3.7-3.7-3.9c-0.3-0.9-1.1-2.1-2.8-2.1c-0.2,0-0.5,0-0.8,0.1c-0.6-1.2-1.9-2.6-4.4-2.6c0,0,0,0,0,0   c2.6-15.9,15.1-27.7,31.3-29.4l-0.2,2.4c-0.3,0.1-0.6,0.2-0.6,0.2c-0.3,0.1-0.5,0.4-0.5,0.7v2.5c-0.1,0-0.1,0-0.1,0.1   c-0.2,0.1-0.4,0.4-0.4,0.6v3.3c0,0.2,0.1,0.5,0.3,0.6c0.2,0.1,0.5,0.1,0.7,0l0,0v0.5c0,0,0,0,0,0.1l-0.5,0.1   c-0.3,0.1-0.5,0.4-0.5,0.7v5.7c-0.1,2-0.2,3.9-0.3,5.8h-1v-0.6c0-0.4-0.3-0.7-0.7-0.7s-0.7,0.3-0.7,0.7V45c0,0.4,0.3,0.7,0.7,0.7   h1.6c-0.1,1.4-0.2,2.8-0.3,4.2h-1.4V49c0-0.4-0.3-0.7-0.7-0.7c-0.4,0-0.7,0.3-0.7,0.7v1.6c0,0.4,0.3,0.7,0.7,0.7h2   c-0.1,1.6-0.3,3-0.4,4.3h-1.4v-0.2c0-0.4-0.3-0.7-0.7-0.7s-0.7,0.3-0.7,0.7v0.9c0,0.4,0.3,0.7,0.7,0.7h1.9   c-0.2,1.6-0.4,2.9-0.4,3.5l-1.5,0.1c-0.4,0-0.7,0.3-0.7,0.7v5c0,0.2,0.1,0.4,0.2,0.5c0.1,0.1,0.3,0.2,0.5,0.2c0,0,0,0,0.1,0l0.5,0   c-0.4,1.9-2.9,13.5-7.9,21.9C26.2,84,18.9,74.6,17,63.2z M49.2,92.6c0.1-0.7,0.2-1.3,0.2-2l6.4-1.2c-1.7,0.8-2.6,2.2-2.9,3.3   c-0.2,0-0.4,0-0.5,0C51.3,92.7,50.2,92.7,49.2,92.6z M67.7,89.2c-4.8-8-7.7-20.1-8.1-22.2l0.5,0c0.2,0,0.4-0.1,0.5-0.2   c0.1-0.1,0.2-0.3,0.2-0.5v-5c0-0.4-0.3-0.7-0.7-0.7l-1.7-0.1c-0.1-0.7-0.3-1.9-0.6-3.6h1.5c0.4,0,0.7-0.3,0.7-0.7v-1.1   c0-0.4-0.3-0.7-0.7-0.7c-0.4,0-0.7,0.3-0.7,0.7v0.4h-1c-0.2-1.3-0.4-2.7-0.6-4.3h1.8c0.4,0,0.7-0.3,0.7-0.7V49   c0-0.4-0.3-0.7-0.7-0.7s-0.7,0.3-0.7,0.7v0.9h-1.3c-0.2-1.4-0.4-2.8-0.5-4.2h1.6c0.4,0,0.7-0.3,0.7-0.7v-1.4c0-0.4-0.3-0.7-0.7-0.7   c-0.4,0-0.7,0.3-0.7,0.7v0.6h-1.1c-0.2-2-0.4-4-0.5-5.8c0,0,0,0,0,0l-0.3-5.8c0-0.3-0.2-0.6-0.6-0.7l-0.7-0.1v-0.6l0.6,0.2   c0.1,0,0.1,0,0.2,0c0.1,0,0.3,0,0.4-0.1c0.2-0.1,0.3-0.3,0.3-0.6v-3.3c0-0.3-0.2-0.6-0.5-0.7c0,0,0,0-0.1,0v-2.4   c0-0.3-0.2-0.6-0.5-0.7c-0.4-0.1-0.7-0.2-1.1-0.3l-0.3-2.5c19.7,0.2,35,15.9,35,35.9C88.3,71.1,79.9,83.5,67.7,89.2z"></path><path d="M80.3,45c-0.3-0.9-1.1-2.1-2.8-2.1c-0.2,0-0.5,0-0.8,0.1c-0.6-1.2-1.9-2.6-4.4-2.6c-0.4,0-0.9,0-1.3,0.1   c-3.4,0.7-4.1,3.2-4.1,4.9c-1.1,0.5-2.4,1.6-2.4,3.7c0,2.6,2.2,3.7,3.4,3.9c0,0,0.1,0,0.1,0h12.5c0,0,0,0,0.1,0   c1.2-0.1,3.4-1.1,3.4-4.2C84,46.2,81.9,45.2,80.3,45z M80.5,51.6H68.2C67.8,51.5,66,51,66,49.1c0-2,1.7-2.5,1.9-2.6   c0.4-0.1,0.6-0.4,0.5-0.8c0-0.1-0.5-3.2,2.9-3.9c0.4-0.1,0.7-0.1,1.1-0.1c2.6,0,3.2,2.2,3.3,2.3c0.1,0.2,0.2,0.3,0.3,0.4   c0.2,0.1,0.4,0.1,0.6,0.1c0.4-0.1,0.7-0.2,1-0.2c1.3,0,1.5,1.3,1.5,1.5c0,0.4,0.3,0.6,0.7,0.6c0.1,0,2.8,0.1,2.8,2.5   C82.6,51.2,80.9,51.6,80.5,51.6z"></path></g></svg>